<?xml version="1.0" encoding="utf-8"?>
<!-- Generator: Adobe Illustrator 24.1.2, SVG Export Plug-In . SVG Version: 6.00 Build 0)  -->
<svg version="1.1" id="Layer_1" xmlns="http://www.w3.org/2000/svg" xmlns:xlink="http://www.w3.org/1999/xlink" x="0px" y="0px"
	 viewBox="0 0 256.7 256.7" style="enable-background:new 0 0 256.7 256.7;" xml:space="preserve">
<style type="text/css">
	.st0{fill:#FFFFFF;}
</style>
<path class="st0" d="M253.3,19.9L144.9,128.4l108.4,108.4c4.6,4.6,4.6,12,0,16.5c-4.6,4.6-12,4.6-16.5,0L128.4,144.9L19.9,253.3
	c-4.6,4.6-12,4.6-16.5,0c-4.6-4.6-4.6-12,0-16.5l108.4-108.4L3.4,19.9c-4.6-4.6-4.6-12,0-16.5s12-4.6,16.5,0l108.4,108.4L236.8,3.4
	c4.6-4.6,12-4.6,16.5,0C257.8,8,257.8,15.4,253.3,19.9L253.3,19.9z"/>
</svg>
