<?xml version="1.0" encoding="utf-8"?>
<!-- Generator: Adobe Illustrator 24.1.2, SVG Export Plug-In . SVG Version: 6.00 Build 0)  -->
<svg version="1.1" id="Layer_1" xmlns="http://www.w3.org/2000/svg" xmlns:xlink="http://www.w3.org/1999/xlink" x="0px" y="0px"
	 viewBox="0 0 507.1 536.5" style="enable-background:new 0 0 507.1 536.5;" xml:space="preserve">
<style type="text/css">
	.st0{fill:#FFFFFF;}
</style>
<g>
	<path class="st0" d="M505.7,14.6c-4-26.6-22.5-8.7-22.5-8.7l0-0.1c-16,16.8-55.3,57.5-101.9,102.5c-3.2-34.8-16.8-70.5-27.2-93.7
		c-20.1-25.8-30.8-6.6-32.8-2.3C291,120.4,216,209.1,178.8,253.1c-10.2,12.1-16.1,19.1-19.2,24c-4.4-0.1-8.4-0.9-13.4-2.6
		c-14-4.8-29.4-7.4-44.5-7.4c-46.8,0-81.6,22.9-91.4,60c-9.3,11.7-12.4,24.9-9.3,38c1,3.6,3.3,8.8,8,12.1c4.2,2.7,10.4,3.8,18.4-2.7
		c0.1-0.1,0.2-0.2,0.3-0.2c4.4-5.1,10.8-10.4,18-10.7c0.7,0.1,2,0.1,3.7,0.2c1.3,0.1,2.5,0.1,3.6,0c6.1-0.2,15.1-1.1,24-4.5l1.3-0.5
		c0,0,0.9-0.3,2.4-0.3c4,0,14.5,2.5,26.5,25.7c1.1,2.8,7.5,17.8,19.5,34.8c-6.1,14.5-13,34.7-10.5,47.8c-2.3-0.5-4.7-0.7-7.1-0.7
		l0.4,11.9c-1.7-3-3.8-5.7-6.3-8.1c-5.5-5.2-12.3-7.7-20-7.5l0.6,16.2c3.4-0.2,5.9,0.9,8.3,3.1c0.9,0.9,1.8,1.9,2.5,3
		c-0.5,0.2-1,0.4-1.5,0.6c-5.6-3.6-11.6-6-17.6-5.8c-4.8,0.1-11.7,1.9-17.2,9.9l13.4,8.6c1.9-2.8,3.4-3.4,4.2-3.4h0.2
		c7.3,0,19.9,12.6,26.9,21.5l10.7,16.7l13.6-8.7l-7.8-12.1l0.5-1.2c3.8,3.6,7.3,7.5,9.8,10.9l1,1.3l8.9,13.7l13.6-8.8l-7.8-12.1
		l12.1-29.2c0.3,0,0.5,0,0.8,0c0.1,0,0.2,0,0.2,0c0.9-0.1,1.8-0.2,2.6-0.4c0.1,0,0.2-0.1,0.4-0.1c0.9-0.2,1.7-0.5,2.5-0.8
		c0.1,0,0.2-0.1,0.3-0.1c8.4-3.3,16.2-11.3,21.3-17.5c5.6,2.1,11.3,3.7,17.1,4.8l32.2,52.9c4.1,4.3,15.4,16.3,15.4,0.5v-15.3
		l31.6,20l45.7-1.5c0.3,0,0.9-0.1,1.2-0.1c50.5-4.6,6.3-38.8,6.3-38.8l0.3,0.1c-33.8-21.5-76.2-58.8-77.1-110.8
		c8.2-2.6,24.3-8.1,44.7-17.6l6.5-3.1l-5-14.7l19.9,6.9l3.2-1.7c15.7-8.7,30.8-18.4,44.9-28.8l9.1-6.8l-0.1-0.1l2.2-1.7
		c22.7-18.3,42.7-38.9,59.4-61.2l8.8-11.7l-18-1.4l22.9-6.6l1.6-2.6c12.6-20.2,22.8-41.9,30.5-64.6l4.2-12.3l-33.3,4.4l38.7-26.3
		l0.7-3.2C506.8,91.4,508.9,53.9,505.7,14.6L505.7,14.6z M203.2,249.3c37.2-44.6,95.6-119.2,126.6-209.6l-0.1,0.3
		c0,0,6.4-23.4,16.7-1.4c0.5,1,0.9,1.8,1.3,2.5C357,65.1,366,95.6,366,123.2c-53.5,50.9-113.8,104.4-158.7,133.4
		C199.1,259.6,202.4,251,203.2,249.3L203.2,249.3z M17,361.7c-2-7.5-0.7-14.5,3.9-21.4c4.2,1.5,10.2,4.3,15,9
		C28,352.2,21.6,356.7,17,361.7L17,361.7z M141.2,459c-4.9,3.1-7.8,4.1-9.1,4.4c-0.9-4.6,1.9-16.8,6.6-29.9c2.2,2.5,4.5,4.9,6.9,7.3
		C143.6,446.8,142,453.1,141.2,459L141.2,459z M113.3,485.1c-0.4-1-0.8-2-1.2-2.9c0.8,0.1,1.5,0.3,2.2,0.5L113.3,485.1z
		 M139.1,488.9c-1.3-3.3-2.9-6.5-4.9-9.5c2.8-0.5,5.5-1.4,8.1-2.6c0.2,0.5,0.4,0.9,0.6,1.3c0,0.1,0.1,0.1,0.1,0.2
		c0.1,0.2,0.2,0.3,0.3,0.5L139.1,488.9z M484.3,119.6l-48.9,33.2c-5.2,4.7-25.2,24.3-0.7,22.4l34.7-4.6
		c-6.3,16.1-13.9,31.6-22.9,46.3l-53.7,15.4l0.2,0c0,0-46.4,13.2-10.9,17.1l39,3.1c-13.1,15.9-28.1,30.7-44.6,44.3l-32.4-5.8
		c-2.9-0.2-23.2-1.1-11.6,8.5l21.3,14.5c-9.8,6.8-20.1,13.3-30.6,19.3l-27.5-9.5c-4.1-0.9-13.7-1.9-12.4,7.3l6.5,19.7l-38.7,14.1
		c-2.8,1.1-7.9,4.6-8.6,14.7c0.7,57.2,43.6,97.5,79.7,121.4c0.5,0.4,1.1,0.9,1.8,1.4c11.8,8.7-2.7,10.7-2.7,10.7l-0.1,0.1l-32.7,1.1
		l-37.6-25.6c-12.3-7.3-11.6,2.5-11.6,2.5v5.7l-26.1-39.3l-4.1-0.5c-4.5-0.6-9.2-1.8-13.6-3.2c0.9-1.5,1.6-2.9,2.4-4.4
		c-0.1,0-0.2,0.1-0.2,0.1s3.7-6.9-3.2-10.7c-6.1-3.3-10.2,2.2-11.2,3.6c-1.8,3.2-3.6,6.1-5.4,8.8l-1.4,1.9c-2.9,4-5.6,7.1-8.1,9.6
		c0,0,0,0-0.1,0.1c-5.4,5.5-9.6,7.6-11.5,7.8c0,0,0-0.1,0-0.1c0,0,0-0.1-0.1-0.2c-0.4-1.1-1.1-5.3,1.6-16.1c0.2-0.7,0.3-1.3,0.5-2
		c0.3-0.9,0.5-1.8,0.8-2.8c0-0.1,0.1-0.2,0.1-0.3c0.7-2.3,1.5-4.8,2.5-7.6l1.5-4.3c0.9-2.4,1.9-4.9,2.9-7.4l-0.1-0.1
		c0,0,4.2-6.9-4.2-10.8c-5.2-2.4-8-0.4-9.3,1.5c-0.5,1.2-1.1,2.5-1.6,3.8c-19.7-21.7-29.4-45.9-29.5-46.2L122,377
		c-14.8-28.8-30.5-34.8-41.1-34.8c-3.8,0-6.7,0.8-8.2,1.4l-0.9,0.3c-6,2.3-12.2,3.2-16.9,3.5c-3.7-6.4-8.7-11.3-13.9-14.9l21.9-7.7
		l1-15.6c-0.6-6.5-6.4-1-6.4-1l0.1-0.2c-6.3,7.6-15,18.3-18.5,23.2c-3.9-2.5-7.8-4.3-11.1-5.6c11.4-31.1,45-42.5,74-42.5
		c13.3,0,26.8,2.1,39.2,6.3c6.3,2.2,11.6,3.1,17.5,3.2c0.6,0.1,4.5,0.6,9.8,0c-0.3,0.2-0.5,0.3-0.8,0.4c0.3-0.1,0.7-0.2,1.2-0.3
		c0.8-0.2,1.7-0.3,2.5-0.5c0,0,0,0,0,0c3.4-0.6,7.2-1.7,11.1-3.7c0.1-0.1,0.2-0.1,0.3-0.2c1-0.5,1.9-0.9,2.8-1.4
		c79.4-34.9,242.8-200.6,299.4-259.4c2.3-1.7,5.3-2.3,5.5,5.6c0.2,6.9,0.1,10.7,0.6,11.4C491.2,70.8,489,95.9,484.3,119.6
		L484.3,119.6z"/>
</g>
</svg>
