<?xml version="1.0" encoding="utf-8"?>
<!-- Generator: Adobe Illustrator 24.1.2, SVG Export Plug-In . SVG Version: 6.00 Build 0)  -->
<svg version="1.1" id="Layer_1" xmlns="http://www.w3.org/2000/svg" xmlns:xlink="http://www.w3.org/1999/xlink" x="0px" y="0px"
	 viewBox="0 0 490 332.5" style="enable-background:new 0 0 490 332.5;" xml:space="preserve">
<style type="text/css">
	.st0{fill:#FFFFFF;}
</style>
<g>
	<path class="st0" d="M52.5,43.8c0,4.8-3.9,8.8-8.8,8.8S35,48.6,35,43.8s3.9-8.8,8.8-8.8S52.5,38.9,52.5,43.8"/>
	<path class="st0" d="M472.5,0h-455C12.9,0,8.4,1.9,5.1,5.1C1.9,8.4,0,12.9,0,17.5V315c0,4.6,1.9,9.1,5.1,12.4
		c3.3,3.3,7.7,5.1,12.4,5.1h455c4.6,0,9.1-1.9,12.4-5.1c3.3-3.3,5.1-7.7,5.1-12.4V17.5c0-4.6-1.9-9.1-5.1-12.4
		C481.6,1.9,477.1,0,472.5,0L472.5,0z M472.5,17.5V35h-226V17.5H472.5z M472.5,105h-226V87.5h226V105z M472.5,140h-226v-17.5h226
		V140z M246.5,70V52.5h226V70H246.5z M17.5,17.5H229V140H17.5V17.5z M17.5,157.5h455V175h-455L17.5,157.5z M17.5,192.5h455V210h-455
		L17.5,192.5z M17.5,227.5h455V245h-455L17.5,227.5z M17.5,262.5h455V280h-455L17.5,262.5z M17.5,315v-17.5h455l0,17.5H17.5z"/>
	<path class="st0" d="M91.9,43.8c0,4.8-3.9,8.8-8.8,8.8s-8.8-3.9-8.8-8.8s3.9-8.8,8.8-8.8S91.9,38.9,91.9,43.8"/>
	<path class="st0" d="M131.2,43.8c0,4.8-3.9,8.8-8.8,8.8s-8.8-3.9-8.8-8.8s3.9-8.8,8.8-8.8S131.2,38.9,131.2,43.8"/>
	<path class="st0" d="M170.6,43.8c0,4.8-3.9,8.8-8.8,8.8s-8.8-3.9-8.8-8.8s3.9-8.8,8.8-8.8S170.6,38.9,170.6,43.8"/>
	<path class="st0" d="M210,43.8c0,4.8-3.9,8.8-8.8,8.8s-8.8-3.9-8.8-8.8s3.9-8.8,8.8-8.8S210,38.9,210,43.8"/>
	<path class="st0" d="M52.5,78.8c0,4.8-3.9,8.8-8.8,8.8S35,83.6,35,78.8s3.9-8.8,8.8-8.8S52.5,73.9,52.5,78.8"/>
	<path class="st0" d="M91.9,78.8c0,4.8-3.9,8.8-8.8,8.8s-8.8-3.9-8.8-8.8s3.9-8.8,8.8-8.8S91.9,73.9,91.9,78.8"/>
	<path class="st0" d="M131.2,78.8c0,4.8-3.9,8.8-8.8,8.8s-8.8-3.9-8.8-8.8s3.9-8.8,8.8-8.8S131.2,73.9,131.2,78.8"/>
	<path class="st0" d="M170.6,78.8c0,4.8-3.9,8.8-8.8,8.8s-8.8-3.9-8.8-8.8s3.9-8.8,8.8-8.8S170.6,73.9,170.6,78.8"/>
	<path class="st0" d="M210,78.8c0,4.8-3.9,8.8-8.8,8.8s-8.8-3.9-8.8-8.8s3.9-8.8,8.8-8.8S210,73.9,210,78.8"/>
	<path class="st0" d="M52.5,113.8c0,4.8-3.9,8.8-8.8,8.8s-8.8-3.9-8.8-8.8s3.9-8.8,8.8-8.8S52.5,108.9,52.5,113.8"/>
	<path class="st0" d="M91.9,113.8c0,4.8-3.9,8.8-8.8,8.8s-8.8-3.9-8.8-8.8s3.9-8.8,8.8-8.8S91.9,108.9,91.9,113.8"/>
	<path class="st0" d="M131.2,113.8c0,4.8-3.9,8.8-8.8,8.8s-8.8-3.9-8.8-8.8s3.9-8.8,8.8-8.8S131.2,108.9,131.2,113.8"/>
	<path class="st0" d="M170.6,113.8c0,4.8-3.9,8.8-8.8,8.8s-8.8-3.9-8.8-8.8s3.9-8.8,8.8-8.8S170.6,108.9,170.6,113.8"/>
	<path class="st0" d="M210,113.8c0,4.8-3.9,8.8-8.8,8.8s-8.8-3.9-8.8-8.8s3.9-8.8,8.8-8.8S210,108.9,210,113.8"/>
</g>
</svg>
