<?xml version="1.0" encoding="utf-8"?>
<!-- Generator: Adobe Illustrator 24.1.2, SVG Export Plug-In . SVG Version: 6.00 Build 0)  -->
<svg version="1.1" id="Layer_1" xmlns="http://www.w3.org/2000/svg" xmlns:xlink="http://www.w3.org/1999/xlink" x="0px" y="0px"
	 viewBox="0 0 262.5 542.5" style="enable-background:new 0 0 262.5 542.5;" xml:space="preserve">
<style type="text/css">
	.st0{fill:#FFFFFF;}
</style>
<g>
	<path class="st0" d="M227.5,43.8c-19.3,0-35,15.7-35,35v22.4c-5.2-3-11.1-4.9-17.5-4.9c-10.5,0-19.8,4.7-26.3,12.1
		c-6.4-7.4-15.7-12.1-26.3-12.1c-6.4,0-12.3,1.9-17.5,4.9V35c0-19.3-15.7-35-35-35S35,15.7,35,35v132.1C15.1,171.2,0,188.9,0,210
		v77.8c0,13.9,4.8,27.4,13.4,38.3l21.6,27v16c-10.2,3.6-17.5,13.2-17.5,24.6c0,11.4,7.3,21,17.5,24.6V490h39.7l15,52.5h83.2l15-52.5
		h39.6v-71.6c10.2-3.6,17.5-13.2,17.5-24.6c0-11.4-7.3-21-17.5-24.6v-16l21.6-27c8.6-10.8,13.4-24.4,13.4-38.2V78.7
		C262.5,59.4,246.8,43.7,227.5,43.8L227.5,43.8z M175,113.8c9.7,0,17.5,7.8,17.5,17.5v105c0,9.7-7.8,17.5-17.5,17.5
		s-17.5-7.8-17.5-17.5v-4.9c10.4-6.1,17.5-17.2,17.5-30.1s-7.1-24.1-17.5-30.1v-39.9C157.5,121.6,165.3,113.7,175,113.8L175,113.8z
		 M140,236.3c0,9.7-7.8,17.5-17.5,17.5s-17.5-7.8-17.5-17.5H140z M122.5,113.8c9.7,0,17.5,7.8,17.5,17.5v35h-35v-35
		C105,121.6,112.8,113.8,122.5,113.8z M70,17.5c9.7,0,17.5,7.8,17.5,17.5v131.3h-35V35C52.5,25.3,60.3,17.5,70,17.5z M43.8,385h17.5
		c4.8,0,8.8,3.9,8.8,8.8s-3.9,8.8-8.8,8.8H43.8c-4.8,0-8.8-3.9-8.8-8.8S38.9,385,43.8,385z M65.8,459l3.9,13.5H52.5V420h8.8
		c6.7,0,12.8-2.6,17.5-6.8c4.7,4.2,10.8,6.8,17.5,6.8h10.4c-1,2.7-1.6,5.7-1.6,8.8c0,8,3.7,15.1,9.3,19.9l-13.2,22.1L65.8,459z
		 M131.3,420c4.8,0,8.8,3.9,8.8,8.8s-3.9,8.8-8.8,8.8s-8.8-3.9-8.8-8.8S126.4,420,131.3,420z M148.8,402.5c-4.8,0-8.8-3.9-8.8-8.8
		s3.9-8.8,8.8-8.8h17.5c4.8,0,8.8,3.9,8.8,8.8s-3.9,8.8-8.8,8.8H148.8z M113.8,402.5H96.3c-4.8,0-8.8-3.9-8.8-8.8s3.9-8.8,8.8-8.8
		h17.5c4.8,0,8.8,3.9,8.8,8.8S118.6,402.5,113.8,402.5z M159.7,525h-56.8l-11.1-39l17.2,5.7L131,455c0.1,0,0.2,0,0.3,0s0.2,0,0.3,0
		l22.1,36.8l17.2-5.7L159.7,525z M192.9,472.5l3.9-13.5l-35.3,11.8l-13.2-22.1c5.7-4.8,9.3-11.9,9.3-19.9c0-3.1-0.6-6-1.6-8.8h10.4
		c6.7,0,12.8-2.6,17.5-6.8c4.7,4.2,10.8,6.8,17.5,6.8h8.8v52.5H192.9z M218.7,402.5h-17.5c-4.8,0-8.8-3.9-8.8-8.8s3.9-8.8,8.8-8.8
		h17.5c4.8,0,8.8,3.9,8.8,8.8S223.6,402.5,218.7,402.5z M245,287.8c0,9.9-3.4,19.6-9.6,27.3L210,346.9v20.6h-8.8
		c-6.7,0-12.8,2.6-17.5,6.8c-4.7-4.2-10.8-6.8-17.5-6.8h-17.5c-6.7,0-12.8,2.6-17.5,6.8c-4.7-4.2-10.8-6.8-17.5-6.8H96.2
		c-6.7,0-12.8,2.6-17.5,6.8c-4.7-4.2-10.8-6.8-17.5-6.8h-8.8v-20.6l-25.4-31.8c-6.2-7.7-9.6-17.4-9.6-27.3V210
		c0-14.5,11.8-26.3,26.2-26.3H140c9.7,0,17.5,7.8,17.5,17.5s-7.8,17.5-17.5,17.5H52.5v17.5h35c0,19.3,15.7,35,35,35
		c10.5,0,19.8-4.7,26.3-12.1c6.4,7.4,15.7,12.1,26.3,12.1c19.3,0,35-15.7,35-35V78.8c0-9.7,7.8-17.5,17.5-17.5S245,69.1,245,78.8
		L245,287.8z"/>
</g>
</svg>
